<svg width="16" height="16" viewBox="0 0 16 16" fill="none" xmlns="http://www.w3.org/2000/svg">
<rect width="16" height="16" fill="#397591"/>
<path fill-rule="evenodd" clip-rule="evenodd" d="M4.85448 2.00657C4.29019 2.06699 3.77476 2.25273 3.28224 2.57316C3.01866 2.74463 2.55653 3.20379 2.3405 3.50883C1.99407 3.99803 1.74443 4.64015 1.64258 5.30408C1.5935 5.62404 1.57539 6.397 1.60808 6.77596C1.63993 7.14516 1.7154 7.63421 1.74626 7.67138C1.77791 7.70954 1.86477 7.67912 2.14084 7.53316C2.47513 7.35644 2.66391 7.22636 2.8659 7.03361C3.12814 6.78335 3.14085 6.75348 3.15577 6.35224C3.16261 6.16825 3.18449 5.93358 3.20436 5.83075C3.34901 5.08216 3.77026 4.4344 4.37366 4.03271C4.62736 3.86382 4.77963 3.79324 5.05369 3.71755C5.30639 3.64774 5.76883 3.62283 6.0496 3.66389C6.80042 3.77368 7.42052 4.22437 7.86381 4.98245L7.98446 5.18878L8.04746 5.08252C8.39096 4.5032 8.72316 4.15929 9.16357 3.92711C9.57286 3.71135 9.94986 3.62709 10.4062 3.64942C11.0567 3.68126 11.6042 3.93568 12.0843 4.42929C12.3183 4.66986 12.4512 4.85377 12.5879 5.12623C13.1622 6.27039 13.2273 7.02498 12.7413 8.10677C12.652 8.30563 12.5525 8.3594 12.4797 8.2482C12.445 8.19522 12.4468 8.18634 12.5215 8.04192C12.6483 7.79674 12.7177 7.51282 12.7318 7.18082C12.7472 6.8203 12.7053 6.59731 12.5732 6.33569C12.4722 6.13581 12.411 6.07789 12.4536 6.22262C12.4956 6.36495 12.4877 6.9742 12.4417 7.14393C12.3882 7.34177 12.2526 7.61773 12.128 7.78244C11.9541 8.01228 11.6478 8.2367 11.5079 8.2367C11.3178 8.2367 10.9299 7.91774 10.8011 7.65555C10.6878 7.42486 10.6631 7.26173 10.6484 6.64746C10.6362 6.13623 10.6382 6.09196 10.6753 6.05091C10.7265 5.99439 10.758 5.99497 10.811 6.05345C10.8492 6.09557 10.8549 6.15131 10.8672 6.6054C10.8747 6.88319 10.8934 7.16568 10.9088 7.23314C10.9688 7.4969 11.1156 7.7115 11.3758 7.91585L11.4966 8.01074L11.6287 7.90699C11.7013 7.84993 11.8101 7.7462 11.8705 7.67649C12.1958 7.301 12.3119 6.89035 12.248 6.34109C12.233 6.2123 12.2139 6.04045 12.2055 5.95918C12.1875 5.78383 12.123 5.67696 11.9633 5.55789C11.6325 5.31131 11.2393 5.20399 10.7755 5.23374C10.1176 5.27594 9.54659 5.58853 9.33308 6.0233C9.27284 6.14598 9.2701 6.1656 9.26959 6.4767C9.26899 6.82828 9.26229 6.85246 9.13094 6.97717C9.04033 7.06318 8.69914 7.26003 8.37794 7.41162C8.00439 7.58791 7.9655 7.61668 7.9655 7.7167C7.9655 7.82241 8.06523 8.00024 8.15981 8.06315C8.20546 8.09352 8.26291 8.16602 8.30227 8.24294C8.43189 8.49622 8.60316 8.62746 8.89314 8.6957C9.13079 8.75163 9.32266 8.72975 9.69351 8.60447C9.97703 8.5087 10.0198 8.50003 10.1633 8.50926C10.3586 8.5218 10.5138 8.59974 10.654 8.75565C10.9805 9.11887 10.9924 9.67428 10.6833 10.126C10.5592 10.3074 10.4041 10.4578 9.86075 10.9234C9.01553 11.6478 8.34052 12.3052 8.03561 12.7011C7.99092 12.7591 7.94242 12.807 7.92783 12.8075C7.91325 12.808 7.82973 12.7244 7.74222 12.6216L7.58315 12.4348L7.38489 12.5837C7.27583 12.6655 7.11109 12.7722 7.01877 12.8207C6.92644 12.8692 6.85082 12.9177 6.85068 12.9285C6.85055 12.9393 6.9439 13.0497 7.05813 13.1738C7.38482 13.5287 7.63665 13.8388 7.80194 14.0898C7.88577 14.2171 7.96039 14.3195 7.96777 14.3175C7.97516 14.3155 8.06938 14.1833 8.17716 14.0239C8.66908 13.2961 9.15813 12.7987 10.7209 11.437C11.4271 10.8217 11.6768 10.5955 12.0132 10.2662C13.2004 9.10419 13.8303 8.21384 14.1546 7.23934C14.497 6.21065 14.4931 5.33089 14.1421 4.37557C13.9745 3.91951 13.6346 3.38597 13.2882 3.035C12.6734 2.41203 12.0066 2.08956 11.1751 2.01295C10.2897 1.9314 9.37909 2.23811 8.70325 2.84552C8.51721 3.01274 8.21137 3.34777 8.09266 3.51441C8.04244 3.58492 7.99503 3.64264 7.98731 3.64264C7.97962 3.64264 7.91452 3.55983 7.84269 3.45865C7.65359 3.19235 7.19631 2.74392 6.941 2.57443C6.40316 2.21736 5.83575 2.03135 5.2113 2.00731C5.06411 2.00167 4.90354 2.00131 4.85448 2.00657ZM9.80656 6.98823C9.65478 6.93814 9.60837 6.74352 9.72032 6.62666C9.87955 6.46047 10.1208 6.64789 10.0357 6.8717C9.99458 6.98002 9.91077 7.02262 9.80656 6.98823Z" fill="white"/>
<path fill-rule="evenodd" clip-rule="evenodd" d="M4.47524 5.44904C4.64141 5.12161 5.13043 4.61361 5.38971 4.49907C5.4265 4.48284 5.48768 4.46914 5.52563 4.46865C5.66907 4.46685 5.7133 4.59332 5.72933 5.05132L5.74158 5.40071L5.84157 5.42589C5.89657 5.43972 5.98798 5.47446 6.04476 5.5031L6.14795 5.55513L6.43786 5.45957C6.59732 5.407 6.82869 5.34141 6.95202 5.3138C7.297 5.2366 7.37329 5.27759 7.26602 5.48249C7.17778 5.651 6.96328 5.97664 6.84584 6.1204C6.74725 6.24105 6.74437 6.24874 6.76266 6.34341C6.77307 6.39733 6.78202 6.53801 6.78255 6.65603C6.78333 6.8279 6.77212 6.9056 6.7262 7.0463C6.58496 7.47914 6.32462 7.76833 5.9335 7.92682C5.76544 7.99493 5.38052 8.01112 5.17914 7.95853C4.72138 7.83904 4.34045 7.54141 4.1508 7.15509C4.03432 6.9178 3.99583 6.75427 3.99615 6.49809C3.99659 6.14495 4.08809 5.89999 4.30756 5.66451C4.37801 5.58893 4.45345 5.49197 4.47524 5.44904ZM5.54544 6.80823C5.52061 6.73002 5.55462 6.61379 5.61655 6.56506C5.70815 6.49303 5.80734 6.50512 5.88916 6.59833C5.97969 6.70141 5.98096 6.79026 5.8932 6.87804C5.77989 6.99135 5.59155 6.95355 5.54544 6.80823ZM6.42109 7.17181C6.35441 7.0971 6.36329 6.93772 6.43829 6.86272C6.51327 6.78774 6.6047 6.79702 6.64611 6.88379C6.72968 7.05892 6.5386 7.30346 6.42109 7.17181ZM2.88082 8.02446C3.35503 7.75267 3.57222 7.57473 3.77184 7.29451C3.81334 7.23626 3.84954 7.1911 3.8523 7.19416C3.85507 7.19719 3.91838 7.29123 3.99302 7.40312C4.21436 7.73496 4.49578 7.95978 4.85657 8.09299L5.01424 8.15119L4.98342 8.26642C4.96647 8.3298 4.9435 8.56229 4.9324 8.78308C4.90898 9.24801 4.86587 9.44884 4.73104 9.72122C4.68204 9.82015 4.59192 9.95726 4.53077 10.0259C4.46962 10.0945 4.4196 10.1555 4.4196 10.1616C4.4196 10.1676 4.48775 10.1933 4.57107 10.2186C4.87667 10.3114 5.1565 10.5562 5.30141 10.8575C5.38513 11.0316 5.44443 11.2638 5.44508 11.4202C5.44526 11.4659 5.44478 11.4916 5.45734 11.5032C5.47388 11.5186 5.51303 11.5096 5.60605 11.4899C5.90783 11.4259 6.13664 11.219 6.23138 10.9246C6.24333 10.8875 6.26095 10.6614 6.27054 10.4222C6.2892 9.95597 6.30988 9.85847 6.44137 9.61688C6.51474 9.48209 6.73186 9.27424 6.88645 9.19081C7.29744 8.969 7.84944 9.0411 8.1316 9.35343C8.38548 9.63443 8.39866 10.0111 8.16162 10.2109C7.95689 10.3835 7.72944 10.3751 7.52135 10.1871C7.47061 10.1412 7.4257 10.1077 7.42155 10.1125C7.36562 10.177 7.35173 10.2676 7.33982 10.6452C7.32904 10.9867 7.31798 11.0866 7.27566 11.2251C7.12414 11.7204 6.79952 12.0924 6.33394 12.3041C6.14523 12.3899 5.96171 12.4382 5.68415 12.4748C5.18208 12.5411 4.58403 12.3658 4.07449 12.0031C3.68272 11.7242 3.11355 11.103 2.75889 10.5672C2.42433 10.0617 2.10364 9.39121 2.02061 9.02357C1.98645 8.87226 1.98678 8.86095 2.02837 8.7684C2.13899 8.52222 2.38129 8.31076 2.88082 8.02446ZM6.75327 7.76659C6.58534 7.688 6.5733 7.67553 6.5923 7.59984C6.61605 7.50524 6.74261 7.52542 7.02439 7.66871C7.40494 7.86224 7.63301 8.06817 7.57295 8.16402C7.52775 8.23616 7.46058 8.22175 7.31239 8.10817C7.13536 7.97252 6.94575 7.85666 6.75327 7.76659ZM6.47841 8.00012C6.37442 7.87711 6.36278 7.8355 6.41715 7.7811C6.48804 7.71021 6.54007 7.74261 6.71179 7.9646C6.9828 8.31491 7.03396 8.50431 6.85757 8.50431C6.82018 8.50431 6.79402 8.47924 6.75862 8.40953C6.69451 8.28319 6.59574 8.13891 6.47841 8.00012ZM6.16869 8.12135C6.13524 8.03469 6.13339 8.01123 6.15767 7.98197C6.22665 7.89883 6.3144 7.95327 6.39018 8.12615C6.49317 8.36112 6.53822 8.54521 6.53822 8.73114C6.53822 8.93254 6.51494 8.99494 6.43981 8.99494C6.36041 8.99494 6.34478 8.95747 6.32814 8.72732C6.31371 8.52793 6.28825 8.43112 6.16869 8.12135Z" fill="white"/>
</svg>
